<?xml version="1.0" encoding="UTF-8"?>
<svg version="1.1" xmlns="http://www.w3.org/2000/svg" width="500" height="500">
<path d="M0 0 C165 0 330 0 500 0 C500 165 500 330 500 500 C335 500 170 500 0 500 C0 335 0 170 0 0 Z " fill="#F8F8F7" transform="translate(0,0)"/>
<path d="M0 0 C0.886875 0.556875 1.77375 1.11375 2.6875 1.6875 C11.11469347 10.11469347 13.01101818 19.63251319 13.3125 31.125 C13.08597313 43.74758076 10.02074021 55.38193303 6.5625 67.4375 C6.27431396 68.44417725 5.98612793 69.45085449 5.68920898 70.48803711 C3.88583265 76.57411697 1.72218893 82.27119639 -1 88 C-1.4117749 88.89195068 -1.8235498 89.78390137 -2.24780273 90.70288086 C-12.2151813 112.22685 -23.48233124 132.5104106 -37 152 C-37.53222168 152.76957031 -38.06444336 153.53914062 -38.61279297 154.33203125 C-40.21483599 156.64242155 -41.82380818 158.94773285 -43.4375 161.25 C-43.92154297 161.94125977 -44.40558594 162.63251953 -44.90429688 163.34472656 C-47.10813692 166.45738242 -49.3201198 169.37038879 -51.91015625 172.171875 C-54.18964527 174.74610615 -54.18964527 174.74610615 -54.2265625 177.44921875 C-52.36207215 181.32664614 -49.4820664 183.88841189 -46.375 186.8125 C-45.0829733 188.0659974 -43.7925884 189.32118943 -42.50390625 190.578125 C-41.88918457 191.17431641 -41.27446289 191.77050781 -40.64111328 192.38476562 C-37.55475808 195.42245173 -34.77922689 198.6846473 -32 202 C-31.16082031 202.96164062 -30.32164062 203.92328125 -29.45703125 204.9140625 C-23.07670064 212.2554611 -17.32618737 219.84893228 -12 228 C-11.55043945 228.68271973 -11.10087891 229.36543945 -10.63769531 230.06884766 C-2.88569787 241.89628587 4.10438162 254.06185096 10.71044922 266.56298828 C11.82690183 268.67287658 12.95969171 270.77277902 14.09765625 272.87109375 C21.32964928 286.61982775 26.17345163 300.8297619 26.1875 316.4375 C26.19974609 317.14970703 26.21199219 317.86191406 26.22460938 318.59570312 C26.24669161 326.69988481 23.94369057 333.51016215 20.70703125 340.8984375 C20.47371094 341.59195312 20.24039062 342.28546875 20 343 C20.33 343.66 20.66 344.32 21 345 C21.54002758 351.26431989 20.84542101 355.89092789 17 361 C12.94412438 364.94135678 8.99015505 366.32567033 3.375 366.5625 C-1.44809754 366.33537352 -4.30077662 365.23682046 -8 362 C-8.43159424 361.46157471 -8.86318848 360.92314941 -9.30786133 360.3684082 C-11.75966398 358.38567067 -13.46254086 358.75101771 -16.57421875 358.91796875 C-17.70496826 358.95905762 -18.83571777 359.00014648 -20.00073242 359.04248047 C-21.82568237 359.11426514 -21.82568237 359.11426514 -23.6875 359.1875 C-37.65012218 359.46242197 -49.75134528 357.22922814 -63 353 C-63.81597656 352.74379883 -64.63195312 352.48759766 -65.47265625 352.22363281 C-73.96525374 349.51209814 -82.05664743 346.21298864 -90.1015625 342.359375 C-92.64646394 341.16580936 -95.18560208 340.11990486 -97.8125 339.125 C-105.11135385 336.26178402 -112.03649438 332.58442375 -119 329 C-119.78181641 328.59942383 -120.56363281 328.19884766 -121.36914062 327.78613281 C-133.18491331 321.716647 -144.70166485 315.39179248 -155.62109375 307.80078125 C-156.83140259 306.96812744 -156.83140259 306.96812744 -158.06616211 306.11865234 C-159.66122236 305.01687836 -161.24713346 303.90171271 -162.82250977 302.77197266 C-166.90162928 299.86354459 -166.90162928 299.86354459 -171.6796875 298.875 C-174.76969732 300.37318658 -177.04972009 302.2891734 -179.625 304.5625 C-180.69566642 305.48698748 -181.76862474 306.4088267 -182.84375 307.328125 C-183.37742188 307.78509766 -183.91109375 308.24207031 -184.4609375 308.71289062 C-188.45382248 312.05211804 -192.76438012 314.98127215 -197 318 C-198.40083114 319.02194292 -199.80048058 320.04550679 -201.19921875 321.0703125 C-215.81701405 331.75906535 -230.96145154 341.28512918 -246.52783203 350.52441406 C-248.8595515 351.9161692 -251.17924777 353.32585147 -253.49609375 354.7421875 C-262.71324772 360.33719473 -272.02261543 364.92380674 -282 369 C-282.87785156 369.38800781 -283.75570312 369.77601563 -284.66015625 370.17578125 C-292.16482007 373.42070267 -300.06732617 375.13503363 -308 377 C-308.62011963 377.17724609 -309.24023926 377.35449219 -309.87915039 377.53710938 C-314.50974592 378.54777003 -319.34301757 378.27136564 -324.0625 378.3125 C-325.14466797 378.34150391 -326.22683594 378.37050781 -327.34179688 378.40039062 C-337.62614924 378.48059253 -348.02980907 375.85571508 -356 369 C-365.94820977 358.11404914 -368.02664578 344.91957171 -367.51171875 330.67578125 C-366.44281895 315.15923332 -360.75707538 300.10150213 -354.77880859 285.87207031 C-354.10241553 284.24618254 -353.46375821 282.60469529 -352.83203125 280.9609375 C-345.6756727 262.61792461 -335.2098573 246.08261058 -324 230 C-323.44570313 229.19949219 -322.89140625 228.39898437 -322.3203125 227.57421875 C-316.37604783 218.99911924 -310.29679583 210.5856551 -303.75585938 202.453125 C-302.37068948 200.72513051 -300.99761993 198.98797263 -299.625 197.25 C-299.18333496 196.70633789 -298.74166992 196.16267578 -298.28662109 195.60253906 C-294.84983155 191.26502699 -294.84983155 191.26502699 -294 186 C-295.49532393 183.59289319 -296.93030865 181.63548331 -298.75 179.5 C-299.24862549 178.89051514 -299.74725098 178.28103027 -300.26098633 177.65307617 C-301.82327239 175.75336968 -303.40715879 173.87413332 -305 172 C-305.48710449 171.42588379 -305.97420898 170.85176758 -306.47607422 170.26025391 C-308.34173988 168.06501499 -310.20978712 165.8718267 -312.08081055 163.68115234 C-323.98053586 149.66719779 -333.73717313 133.83901481 -343 118 C-343.35868164 117.39236816 -343.71736328 116.78473633 -344.08691406 116.15869141 C-345.14783927 114.35954308 -346.20031661 112.55572626 -347.25 110.75 C-347.85328125 109.71359375 -348.4565625 108.6771875 -349.078125 107.609375 C-359.08141212 89.32713897 -367.67487425 64.77576636 -361.875 43.875 C-358.36231582 35.44124411 -352.02403008 29.20306337 -344 25 C-338.37942153 23.03816752 -333.36623144 22.68298943 -327.4375 22.75 C-326.1081543 22.76232666 -326.1081543 22.76232666 -324.75195312 22.77490234 C-280.26533404 23.52494868 -232.21682263 49.1742371 -194.95703125 72.0625 C-194.18029053 72.53703613 -193.4035498 73.01157227 -192.60327148 73.50048828 C-191.15218797 74.39559075 -189.70968731 75.30480857 -188.27758789 76.22998047 C-184.86372958 78.4927801 -184.86372958 78.4927801 -180.94921875 78.5859375 C-180.30597656 78.06257813 -179.66273438 77.53921875 -179 77 C-178.00871094 76.23171875 -177.01742187 75.4634375 -175.99609375 74.671875 C-174.80806851 73.70014646 -173.62199919 72.72602357 -172.4375 71.75 C-163.52392765 64.51402871 -154.29015974 57.74153185 -145 51 C-144.05060547 50.30777344 -144.05060547 50.30777344 -143.08203125 49.6015625 C-128.53422064 39.00381967 -113.58418589 29.01107014 -98 20 C-97.35853027 19.6277832 -96.71706055 19.25556641 -96.05615234 18.87207031 C-91.40514556 16.18390527 -86.71683008 13.5707072 -82 11 C-81.37577148 10.65582031 -80.75154297 10.31164062 -80.10839844 9.95703125 C-71.75887724 5.39559738 -63.22002429 1.79920942 -54.25 -1.375 C-52.84899048 -1.87592163 -52.84899048 -1.87592163 -51.41967773 -2.38696289 C-34.09470381 -8.30299325 -15.91330964 -10.1209895 0 0 Z " fill="#0C304C" transform="translate(420,61)"/>
<path d="M0 0 C3.37002072 1.61045238 6.40847503 3.41935816 9.52734375 5.4765625 C10.13151123 5.87319092 10.73567871 6.26981934 11.3581543 6.6784668 C12.63311747 7.51733181 13.90595674 8.35943291 15.17675781 9.20458984 C17.02590805 10.43405293 18.88125192 11.65357452 20.73828125 12.87109375 C40.05436615 25.58482455 58.38937692 39.34928198 76.27392578 53.99707031 C77.84829258 55.27976227 79.43480611 56.54751788 81.0234375 57.8125 C87.87039852 63.2859993 94.23319377 69.20111765 100.60546875 75.2109375 C104.34664742 78.73418343 108.17383134 82.14857751 112.08984375 85.4765625 C111.61864236 90.1717478 109.82519661 92.25636742 106.58984375 95.6015625 C105.66960392 96.5733753 104.75168509 97.54739046 103.8359375 98.5234375 C103.37300293 99.01521484 102.91006836 99.50699219 102.43310547 100.01367188 C100.41029121 102.21663499 98.53226824 104.52630327 96.65234375 106.8515625 C88.32893877 117.13169777 79.7508247 127.09881291 70.70410156 136.74902344 C69.05110618 138.5180185 67.40961756 140.2971607 65.76953125 142.078125 C58.23120298 150.23210621 50.4938413 158.17768769 42.65234375 166.0390625 C41.7288916 166.96710693 40.80543945 167.89515137 39.85400391 168.85131836 C34.75873239 173.93506211 29.55582979 178.79637443 24.08984375 183.4765625 C21.5467395 185.76357793 19.01455973 188.06199853 16.484375 190.36328125 C15.29908203 191.40935547 15.29908203 191.40935547 14.08984375 192.4765625 C13.24808594 193.24613281 12.40632813 194.01570312 11.5390625 194.80859375 C9.08984375 196.4765625 9.08984375 196.4765625 7.1953125 196.515625 C4.02999524 194.95352038 1.23440571 192.93800428 -1.59765625 190.8515625 C-2.53411987 190.17105835 -2.53411987 190.17105835 -3.48950195 189.47680664 C-11.23327551 183.82432223 -18.70740372 177.87408709 -26.10546875 171.77734375 C-27.90219295 170.30342933 -29.70869533 168.84130679 -31.52734375 167.39453125 C-37.76705647 162.40461262 -43.63711958 157.10500884 -49.43261719 151.61254883 C-52.45877916 148.74671603 -55.51071024 145.94263845 -58.67578125 143.23046875 C-63.50545302 139.03349742 -68.0164906 134.52053364 -72.52856445 129.98852539 C-73.97040846 128.54131865 -75.41752741 127.09954224 -76.86523438 125.65820312 C-81.54109413 120.98554663 -86.08909684 116.253478 -90.38842773 111.23022461 C-91.82029251 109.58012279 -93.2963695 107.9984115 -94.81640625 106.4296875 C-96.1003125 105.09164062 -96.1003125 105.09164062 -97.41015625 103.7265625 C-98.28671875 102.82421875 -99.16328125 101.921875 -100.06640625 100.9921875 C-101.91015625 98.4765625 -101.91015625 98.4765625 -102.0234375 96.51953125 C-100.34453281 93.43859388 -98.01625632 91.04327673 -95.59765625 88.5390625 C-94.62195636 87.5095309 -93.64672343 86.47955662 -92.671875 85.44921875 C-92.09646973 84.84625977 -91.52106445 84.24330078 -90.92822266 83.62207031 C-88.99931489 81.57135153 -87.10699013 79.4901804 -85.21534729 77.40516663 C-76.74298759 68.10689847 -67.83072413 59.24616772 -58.92724609 50.36328125 C-56.14824952 47.58967888 -53.37468342 44.81072569 -50.6015625 42.03125 C-48.81412288 40.24447069 -47.02637335 38.45800135 -45.23828125 36.671875 C-44.42039124 35.85196075 -43.60250122 35.03204651 -42.75982666 34.18728638 C-37.96871654 29.41550072 -33.05552157 24.86320272 -27.91015625 20.4765625 C-26.75732543 19.47972968 -25.60490726 18.48241918 -24.453125 17.484375 C-22.12839666 15.48191996 -19.79266374 13.4929323 -17.453125 11.5078125 C-15.19027676 9.58626035 -12.96750514 7.63239798 -10.7734375 5.6328125 C-9.82855469 4.7975 -8.88367188 3.9621875 -7.91015625 3.1015625 C-6.67265625 1.97621094 -6.67265625 1.97621094 -5.41015625 0.828125 C-2.91015625 -0.5234375 -2.91015625 -0.5234375 0 0 Z " fill="#F8F7F7" transform="translate(240.91015625,151.5234375)"/>
<path d="M0 0 C4.09857743 1.86259331 6.61915635 4.61159341 9.5625 7.9375 C13.54158252 12.34867787 17.58226633 16.64069498 21.8125 20.8125 C24.80576929 23.77165796 27.70821924 26.73356172 30.4375 29.9375 C36.98860966 37.59095985 44.29247975 44.71989038 51.96484375 51.2421875 C54.40828038 53.3526414 56.75918821 55.55292879 59.125 57.75 C63.74041639 61.95910738 68.51941265 65.8605201 73.45776367 69.68261719 C78.01665276 73.21152364 82.48412468 76.83918826 86.9375 80.5 C94.41582869 86.62836726 102.14383599 92.3674916 110 98 C106.7334024 102.13531026 103.55345176 105.37485652 99.3125 108.5625 C98.75780029 108.98031738 98.20310059 109.39813477 97.6315918 109.82861328 C95.76180521 111.2293574 93.88215502 112.61592519 92 114 C91.31679687 114.5048291 90.63359375 115.0096582 89.9296875 115.52978516 C74.74435921 126.72206235 59.17228487 137.28349867 43 147 C41.67935547 147.79664063 41.67935547 147.79664063 40.33203125 148.609375 C38.67970628 149.60333173 37.02483451 150.59306959 35.3671875 151.578125 C33.81957262 152.50771545 32.28243708 153.4550399 30.7578125 154.421875 C22.8638452 159.36557169 14.48706682 163.20208129 6 167 C5.36400879 167.28939453 4.72801758 167.57878906 4.07275391 167.87695312 C-12.31211391 175.2560312 -33.33680105 181.21820819 -50.93359375 174.8984375 C-58.70262517 171.52059775 -65.7710427 164.85323065 -68.9375 156.875 C-73.66962926 141.40457742 -70.49087748 125.29096485 -65.375 110.375 C-64.84277832 108.81096436 -64.84277832 108.81096436 -64.29980469 107.21533203 C-61.0592548 97.87332237 -57.39608083 88.85636558 -53 80 C-52.60425781 79.20045898 -52.20851563 78.40091797 -51.80078125 77.57714844 C-37.83412343 49.8264737 -19.07804501 24.41039582 0 0 Z " fill="#F8F7F7" transform="translate(132,255)"/>
<path d="M0 0 C0.70640625 0.70898438 1.4128125 1.41796875 2.140625 2.1484375 C4.01307107 4.02220034 5.89985044 5.8772285 7.796875 7.7265625 C14.35505314 14.14022906 20.33670704 20.76841053 26 28 C26.91716435 29.15038137 27.83517389 30.30008926 28.75390625 31.44921875 C40.92952446 46.73257788 51.57137629 62.88682663 61 80 C61.37157227 80.6693457 61.74314453 81.33869141 62.12597656 82.02832031 C67.51211548 91.77402087 72.23353453 101.50942791 76 112 C76.3403125 112.88300781 76.680625 113.76601563 77.03125 114.67578125 C79.0843604 120.78758674 79.30174599 126.79521585 79.375 133.1875 C79.38901855 134.03143311 79.40303711 134.87536621 79.41748047 135.74487305 C79.3736474 141.46621292 78.41680517 145.79502692 76 151 C75.34 151.33 74.68 151.66 74 152 C73.39929688 151.69707031 72.79859375 151.39414062 72.1796875 151.08203125 C68.31203424 149.16206718 64.21838925 149.57282134 60 150 C55.25798186 151.66848786 52.67563069 153.75589614 50 158 C49.20830942 160.35497808 48.51260419 162.69991491 47.90625 165.109375 C47 167 47 167 45.3046875 167.75390625 C15.84898286 170.89917641 -15.06746978 158.89478625 -41 146 C-42.23270181 145.4015787 -43.46578292 144.80393817 -44.69921875 144.20703125 C-65.07071476 134.26825774 -84.56679448 123.20904819 -103 110 C-101.44298875 106.10747188 -98.98565894 103.93857023 -95.875 101.1875 C-95.3792749 100.74591553 -94.8835498 100.30433105 -94.37280273 99.84936523 C-91.61896314 97.40195321 -88.83984409 94.98317464 -86.0625 92.5625 C-77.67202543 85.23990401 -69.57625565 77.67106908 -61.6875 69.8125 C-61.03007812 69.15967041 -60.37265625 68.50684082 -59.6953125 67.83422852 C-55.88686532 64.01375972 -52.27334334 60.08030519 -48.74829102 55.99780273 C-45.79583608 52.62398082 -42.7054471 49.38157535 -39.625 46.125 C-31.88144019 37.89324476 -24.24535721 29.67429444 -17.25 20.7890625 C-13.96732697 16.71991573 -10.5482522 12.771329 -7.1237793 8.82128906 C-4.64114384 5.95021959 -2.22343815 3.0809416 0 0 Z " fill="#F7F7F7" transform="translate(359,244)"/>
<path d="M0 0 C0.78181641 -0.020625 1.56363281 -0.04125 2.36914062 -0.0625 C10.56216942 -0.11725708 16.25321498 2.5532919 22.32421875 8.08203125 C30.22747567 17.27764465 30.95511982 28.71094076 30.1875 40.25 C28.21501139 55.19121295 23.22308151 69.50905075 17.1875 83.25 C16.47013672 84.99410156 16.47013672 84.99410156 15.73828125 86.7734375 C6.59993804 108.78504864 -6.12531999 128.94569568 -19.4375 148.625 C-20.04698486 149.52863281 -20.65646973 150.43226563 -21.28442383 151.36328125 C-24.42418185 155.95965414 -27.65481787 160.48232459 -31.0234375 164.9140625 C-31.6529834 165.74631348 -32.2825293 166.57856445 -32.93115234 167.43603516 C-34.8125 169.25 -34.8125 169.25 -38.8125 169.25 C-41.04434131 167.28680626 -43.03908524 165.3468267 -45.0625 163.1875 C-46.22863575 161.9812981 -47.39659478 160.77685615 -48.56640625 159.57421875 C-49.12730957 158.99462402 -49.68821289 158.4150293 -50.26611328 157.81787109 C-52.68331048 155.36709111 -55.25581643 153.13124095 -57.87890625 150.90625 C-60.11586935 148.99014423 -62.27053578 146.99487144 -64.4375 145 C-70.1250428 139.86371135 -76.14593418 135.19992364 -82.20068359 130.51074219 C-84.3710915 128.81307687 -86.49550876 127.06107714 -88.625 125.3125 C-101.1492968 115.2641762 -114.71325404 106.37529346 -128.265625 97.7890625 C-129.24829346 97.16628418 -130.23096191 96.54350586 -131.2434082 95.90185547 C-133.21384415 94.65543273 -135.18627116 93.41215081 -137.16088867 92.17236328 C-141.56499725 89.39192316 -145.84891215 86.64976537 -149.8125 83.25 C-140.36100629 74.93540051 -130.44950906 67.39614696 -120.25439453 60.01855469 C-117.87149613 58.29272825 -115.49560099 56.55765946 -113.12109375 54.8203125 C-95.33158694 41.83893405 -76.98570032 30.08900635 -57.8125 19.25 C-57.24370117 18.91419922 -56.67490234 18.57839844 -56.08886719 18.23242188 C-52.10882376 15.89539359 -48.09124088 14.00742369 -43.8125 12.25 C-42.50854779 11.69012029 -41.20518243 11.12887227 -39.90234375 10.56640625 C-30.99378971 6.78210963 -22.2089275 3.64088306 -12.8125 1.25 C-12.17779785 1.0742041 -11.5430957 0.8984082 -10.88916016 0.71728516 C-7.2897541 -0.09264468 -3.6754469 0.02388593 0 0 Z " fill="#F7F7F7" transform="translate(394.8125,61.75)"/>
<path d="M0 0 C22.83942422 8.90726452 45.00931966 19.43201121 66.04638672 32.01904297 C69.62585411 34.12200225 73.300818 36.04554667 76.98486328 37.95751953 C78.99895672 39.1659756 80.4437954 40.44268828 82.01611328 42.17626953 C81.38447266 42.67513672 80.75283203 43.17400391 80.10205078 43.68798828 C73.19141964 49.23441702 66.69801346 55.10924076 60.23876953 61.16845703 C57.19624434 64.02033019 54.08689073 66.78290994 50.93408203 69.51220703 C44.53022114 75.06830629 38.31680187 80.7514485 32.41455078 86.84033203 C30.41801338 88.7848424 28.38698438 90.60418215 26.27783203 92.42236328 C21.81116128 96.30082192 17.62382561 100.42091351 13.45361328 104.61376953 C12.73753906 105.32597656 12.02146484 106.03818359 11.28369141 106.77197266 C7.19779423 110.8653055 3.30760998 115.06515881 -0.4675293 119.44604492 C-2.23381733 121.46145038 -4.10509033 123.32977105 -6.04638672 125.17626953 C-9.81278638 128.876592 -12.95380166 132.86069385 -15.98388672 137.17626953 C-19.69759986 135.93836515 -20.62217078 134.47083837 -23.04638672 131.42626953 C-23.84689453 130.42208984 -24.64740234 129.41791016 -25.47216797 128.38330078 C-26.31011522 127.31484498 -27.14735894 126.24583704 -27.98388672 125.17626953 C-28.76119141 124.19013672 -29.53849609 123.20400391 -30.33935547 122.18798828 C-32.92030583 118.87443537 -35.46289322 115.53553528 -37.98388672 112.17626953 C-38.47904785 111.51771973 -38.97420898 110.85916992 -39.484375 110.18066406 C-48.38527334 98.27671863 -56.35031297 85.92444342 -63.98388672 73.17626953 C-64.58523437 72.18651123 -64.58523437 72.18651123 -65.19873047 71.17675781 C-73.06747886 58.20802436 -79.39369337 44.94325668 -82.98388672 30.17626953 C-83.19166748 29.32863037 -83.39944824 28.48099121 -83.61352539 27.60766602 C-86.04538581 16.73613246 -85.70964365 7.04709918 -79.85107422 -2.71044922 C-76.85612821 -6.647514 -73.30017941 -8.6263451 -68.98388672 -10.82373047 C-68.3503125 -11.18217041 -67.71673828 -11.54061035 -67.06396484 -11.90991211 C-47.62037133 -20.45185701 -17.99841586 -6.88462467 0 0 Z " fill="#F8F7F7" transform="translate(149.98388671875,104.82373046875)"/>
<path d="M0 0 C0 3 0 3 -1.75 5.04296875 C-2.4925 5.75066406 -3.235 6.45835937 -4 7.1875 C-4.7425 7.90292969 -5.485 8.61835938 -6.25 9.35546875 C-6.8275 9.89816406 -7.405 10.44085938 -8 11 C-8.99 10.67 -9.98 10.34 -11 10 C-3.70159453 2.51708428 -3.70159453 2.51708428 0 0 Z " fill="#293C53" transform="translate(182,191)"/>
<path d="M0 0 C0 3.63053243 -1.2278255 4.95750337 -3.5546875 7.63671875 C-5.49136818 9.46347972 -7.46012234 10.27432067 -10 11 C-6.79239749 7.19364503 -3.59253891 3.45436433 0 0 Z " fill="#142A41" transform="translate(302,298)"/>
<path d="M0 0 C0.66 0.33 1.32 0.66 2 1 C-0.31 3.31 -2.62 5.62 -5 8 C-5.99 7.67 -6.98 7.34 -8 7 C-5.36 4.69 -2.72 2.38 0 0 Z " fill="#1A3149" transform="translate(217,159)"/>
</svg>
